<svg xmlns="http://www.w3.org/2000/svg" xmlns:xlink="http://www.w3.org/1999/xlink" preserveAspectRatio="xMidYMid" width="61" height="63.97" viewBox="0 0 61 63.97">
  <defs>
    <style>
      .cls-1 {
        fill: #fff;
        fill-rule: evenodd;
      }
    </style>
  </defs>
  <path d="M60.948,56.098 C60.935,49.624 56.468,48.140 56.468,48.140 L42.297,43.557 L37.749,41.179 L37.749,35.774 C37.749,35.774 41.186,33.481 41.634,30.081 C41.805,30.070 41.986,30.054 42.202,30.027 C44.674,29.712 46.476,23.328 46.476,23.328 C46.476,23.328 46.595,20.350 45.098,20.350 C44.930,20.350 43.254,20.375 43.117,20.426 L43.500,15.138 L43.542,11.101 C43.542,11.101 43.571,0.105 30.741,-0.014 C17.428,0.105 19.920,6.018 19.920,6.018 C19.920,6.032 19.925,6.045 19.925,6.056 C18.264,7.055 17.428,8.588 17.428,11.716 C17.428,18.527 18.245,20.970 18.245,20.970 L16.372,20.350 C16.372,20.350 14.226,20.574 14.407,23.205 C14.589,25.835 16.706,29.712 19.178,30.027 C19.365,30.051 19.527,30.064 19.678,30.076 C19.685,34.220 23.151,35.881 23.151,35.881 L23.182,41.043 L18.543,43.551 L4.837,48.088 C4.837,48.088 -0.031,49.624 -0.003,56.061 L0.090,63.970 L61.000,63.970 C61.000,63.970 60.961,62.571 60.948,56.098 Z" class="cls-1"/>
</svg>
